<svg version="1.1" id="Layer_1" xmlns="http://www.w3.org/2000/svg" xmlns:xlink="http://www.w3.org/1999/xlink" x="0px" y="0px"
	 viewBox="0 0 100 100.8" style="enable-background:new 0 0 100 100.8;" xml:space="preserve">
<style type="text/css">
	.st0{fill:#FFFFFF;}
</style>
<path class="st0" d="M43.7,80c-3.7-3.7-9.7-3.7-13.4,0c-2.4,2.4-3.3,5.9-2.5,9l18.1-5.4C45.5,82.3,44.7,81,43.7,80z"/>
<path class="st0" d="M35.7,46.5c-2.2-2.2-5.8-2.2-8,0c-2.2,2.2-2.2,5.8,0,8c2.2,2.2,5.8,2.2,8,0C37.9,52.3,37.9,48.7,35.7,46.5z"/>
<ellipse transform="matrix(0.7071 -0.7071 0.7071 0.7071 -24.5205 57.85)" class="st0" cx="57.6" cy="58.5" rx="2" ry="2"/>
<path class="st0" d="M27.5,77.1c5.2-5.2,13.8-5.2,19,0c1.5,1.5,2.6,3.4,3.2,5.3l27.5-8.3c0,0,1.4-14.1-17.7-33.2
	S26.4,23.2,26.4,23.2L4.5,96L24,90.2C22.8,85.7,24,80.7,27.5,77.1z M61.8,54.3c2.3,2.3,2.3,6.1,0,8.5c-2.3,2.3-6.1,2.3-8.5,0
	c-2.3-2.3-2.3-6.1,0-8.5C55.7,51.9,59.5,51.9,61.8,54.3z M24.8,57.3c-3.8-3.8-3.8-9.9,0-13.7s9.9-3.8,13.7,0c3.8,3.8,3.8,9.9,0,13.7
	C34.7,61.1,28.6,61.1,24.8,57.3z"/>
<path class="st0" d="M27.7,17l-0.2,1.9c0.2,0,18.3,2.3,35.1,19.1s19,34.9,19.1,35.1l2-0.2l12.5-3.7c-1.2-6.4-5.9-24.7-23-41.8
	S37.8,5.5,31.4,4.3L27.7,17z"/>
</svg>
